<svg width="160" height="160" viewBox="0 0 160 160" fill="none" xmlns="http://www.w3.org/2000/svg">
<rect width="160" height="160" fill="black"/>
<path d="M27 140V125.577L35.5714 124.341L73.7308 20H98.3736L136.286 124.341L144.857 125.577V140H103.978V125.577L112.302 124.093L107.027 107.61H64.8297L59.5549 124.093L67.8791 125.577V140H27ZM70.5165 89.8901H101.341L87.3297 48.7637L86.1758 45.1374H85.6813L84.4451 49.011L70.5165 89.8901Z" fill="white"/>
<path d="M25.6278 70C20.8489 70 17.0496 68.7237 14.2297 66.171C11.4099 63.5886 10 60.0861 10 55.6634C10 52.6358 10.8163 49.9792 12.4488 47.6937C14.111 45.4081 16.545 43.6123 19.7507 42.3063C22.986 41.0003 26.9635 40.3473 31.683 40.3473H38.0499V36.7854C38.0499 34.4702 37.3672 32.6002 36.0018 31.1754C34.6661 29.721 32.6477 28.9938 29.9466 28.9938C28.5515 28.9938 27.3048 29.1719 26.2066 29.528C25.1083 29.8546 24.0991 30.3295 23.179 30.9528L22.1549 37.3197H12.805L12.6269 24.8085C15.1499 23.3838 17.8807 22.2262 20.8192 21.3357C23.7578 20.4452 27.0377 20 30.6589 20C36.9516 20 41.9234 21.4693 45.5744 24.4078C49.2253 27.3167 51.0508 31.4871 51.0508 36.919V56.7765C51.0508 57.4295 51.0508 58.0825 51.0508 58.7355C51.0804 59.3589 51.1398 59.9673 51.2289 60.561L56.26 61.2734V69.065H40.1425C39.816 68.2339 39.4895 67.3434 39.163 66.3936C38.8364 65.4438 38.599 64.4939 38.4506 63.5441C36.9071 65.5031 35.0816 67.0763 32.9742 68.2636C30.8964 69.4212 28.4476 70 25.6278 70ZM29.1006 60.3829C30.9112 60.3829 32.6328 59.9822 34.2654 59.1808C35.8979 58.3497 37.1594 57.2663 38.0499 55.9305V48.317H31.6385C28.789 48.317 26.6221 48.97 25.138 50.276C23.6836 51.5821 22.9564 53.1552 22.9564 54.9955C22.9564 56.7171 23.4906 58.0528 24.5592 59.0027C25.6575 59.9228 27.1713 60.3829 29.1006 60.3829Z" fill="white"/>
</svg>
